<svg width="39" height="37" viewBox="0 0 39 37" fill="none" xmlns="http://www.w3.org/2000/svg">
<g filter="url(#filter0_d_2:140)">
<path d="M8.16667 0.333252H27.3333C28.4384 0.333252 29.4982 0.772239 30.2796 1.55364C31.061 2.33504 31.5 3.39485 31.5 4.49992V15.8549C29.6008 15.2396 27.5685 15.161 25.6275 15.6279C23.6865 16.0947 21.9122 17.0888 20.5006 18.5005C19.0889 19.9121 18.0948 21.6864 17.6279 23.6274C17.1611 25.5685 17.2397 27.6007 17.855 29.4999H6.5C6.5 29.9419 6.6756 30.3659 6.98816 30.6784C7.30072 30.991 7.72464 31.1666 8.16667 31.1666H18.5533C19.0305 32.081 19.6355 32.9228 20.35 33.6666H8.16667C7.0616 33.6666 6.00179 33.2276 5.22039 32.4462C4.43899 31.6648 4 30.605 4 29.4999V4.49992C4 3.39485 4.43899 2.33504 5.22039 1.55364C6.00179 0.772239 7.0616 0.333252 8.16667 0.333252ZM10.6667 5.33325C10.2246 5.33325 9.80072 5.50885 9.48816 5.82141C9.17559 6.13397 9 6.55789 9 6.99992V8.66659C9 9.10861 9.17559 9.53254 9.48816 9.8451C9.80072 10.1577 10.2246 10.3333 10.6667 10.3333H24C24.442 10.3333 24.8659 10.1577 25.1785 9.8451C25.4911 9.53254 25.6667 9.10861 25.6667 8.66659V6.99992C25.6667 6.55789 25.4911 6.13397 25.1785 5.82141C24.8659 5.50885 24.442 5.33325 24 5.33325H10.6667Z" fill="#A1C5E9"/>
<path d="M37.3333 26.1667C37.3333 23.7355 36.3676 21.4039 34.6485 19.6849C32.9294 17.9658 30.5978 17 28.1667 17C25.7355 17 23.4039 17.9658 21.6849 19.6849C19.9658 21.4039 19 23.7355 19 26.1667C19 28.5978 19.9658 30.9294 21.6849 32.6485C23.4039 34.3676 25.7355 35.3333 28.1667 35.3333C30.5978 35.3333 32.9294 34.3676 34.6485 32.6485C36.3676 30.9294 37.3333 28.5978 37.3333 26.1667ZM27.19 22.1617L31.8667 25.2283C32.0116 25.3213 32.1305 25.4497 32.2121 25.6013C32.2937 25.7529 32.3354 25.9228 32.3333 26.095C32.3335 26.2683 32.2924 26.4391 32.2133 26.5933C32.1387 26.746 32.0248 26.876 31.8833 26.97L27.205 30.1617C27.1236 30.2164 27.035 30.2596 26.9417 30.29C26.725 30.3592 26.4905 30.3455 26.2833 30.2517C26.1639 30.1958 26.0551 30.1196 25.9617 30.0267C25.8714 29.9284 25.7982 29.8157 25.745 29.6933C25.6929 29.5682 25.6663 29.4339 25.6667 29.2983V23.035C25.6658 22.8345 25.7231 22.638 25.8317 22.4693C25.9403 22.3007 26.0954 22.1672 26.2783 22.085C26.4236 22.0169 26.5842 21.988 26.7441 22.0012C26.9041 22.0143 27.0578 22.0691 27.19 22.16V22.1617Z" fill="#A1C5E9"/>
</g>
<defs>
<filter id="filter0_d_2:140" x="0" y="0.333252" width="41.3333" height="43" filterUnits="userSpaceOnUse" color-interpolation-filters="sRGB">
<feFlood flood-opacity="0" result="BackgroundImageFix"/>
<feColorMatrix in="SourceAlpha" type="matrix" values="0 0 0 0 0 0 0 0 0 0 0 0 0 0 0 0 0 0 127 0" result="hardAlpha"/>
<feOffset dy="4"/>
<feGaussianBlur stdDeviation="2"/>
<feComposite in2="hardAlpha" operator="out"/>
<feColorMatrix type="matrix" values="0 0 0 0 0 0 0 0 0 0 0 0 0 0 0 0 0 0 0.25 0"/>
<feBlend mode="normal" in2="BackgroundImageFix" result="effect1_dropShadow_2:140"/>
<feBlend mode="normal" in="SourceGraphic" in2="effect1_dropShadow_2:140" result="shape"/>
</filter>
</defs>
</svg>
